<svg viewBox="0 0 30 30" xmlns="http://www.w3.org/2000/svg"><path d="M11.5 0c.3 0 .5.2.5.5v4a.5.5 0 11-1 0v-4c0-.3.2-.5.5-.5zm5 0c.3 0 .5.2.5.5v4a.5.5 0 11-1 0v-4c0-.3.2-.5.5-.5zm-10 0c.3 0 .5.2.5.5v4a.5.5 0 11-1 0v-4c0-.3.2-.5.5-.5zm-3 9h16a.5.5 0 110 1h-16a.5.5 0 110-1zm21-1c-.7 0-.7 1 0 1h1c2 0 3.5 1.6 3.5 3.5S27.4 16 25.5 16h-1c-.7 0-.7 1 0 1h1a4.5 4.5 0 000-9zM.5 6c-.3 0-.5.2-.5.5v12c0 4.7 2.8 8.7 6.8 10.5H.5a.5.5 0 100 1h22a.5.5 0 100-1h-6.3c4-1.8 6.8-5.8 6.8-10.5v-12c0-.7-1-.7-1 0v12a10.5 10.5 0 11-21 0v-12C1 6.2.8 6 .5 6z"/></svg>