<svg xmlns="http://www.w3.org/2000/svg" viewBox="0 0 30 30"><path d="M7.5 25c1.4 0 2.8-.6 3.9-1.6 1-1 1.6-2.4 1.6-3.9a7 7 0 00-1.3-3.8l-2.3-3a9 9 0 01-1-1.8 3.8 3.8 0 011.4-5c.4-.3.2-1-.4-.9A11.7 11.7 0 000 16.5c0 2 .6 4.2 2 5.8A6.7 6.7 0 007.5 25zm0-1a5.9 5.9 0 01-4.8-2.3A8.1 8.1 0 011 16.5a10.3 10.3 0 016.7-9.8C7.3 7.4 7 8.2 7 9c0 .8.2 1.6.5 2.3l1 2c.8 1 1.7 2 2.3 3a6 6 0 011.2 3.2A4.5 4.5 0 017.5 24zm17 1c1.4 0 2.9-.6 3.9-1.6S30 21 30 19.5a7 7 0 00-1.3-3.8l-2.3-3a9 9 0 01-1-1.8 3.8 3.8 0 011.4-5c.4-.3.2-1-.4-.9A11.7 11.7 0 0017 16.5c0 2 .6 4.2 2 5.8a6.7 6.7 0 005.5 2.7zm0-1a5.9 5.9 0 01-4.8-2.3 8.1 8.1 0 01-1.7-5.2 10.2 10.2 0 016.7-9.8c-.4.7-.7 1.5-.7 2.3 0 .8.2 1.6.5 2.3l1 2c.8 1 1.7 2 2.3 3a6 6 0 011.2 3.2 4.5 4.5 0 01-4.5 4.5z"/></svg>