<svg viewBox="0 0 30 30" xmlns="http://www.w3.org/2000/svg"><path d="M17.5 15c-.8 0-1.5.3-1.9.8-.4.5-.6 1-.6 1.7 0 .8-.6 1.4-.8 1.6-.4.3-.2.9.3.9H17c.8 0 1.5-.2 2-.7.6-.4 1-1 1-1.8 0-.7-.2-1.3-.6-1.8a3 3 0 00-1.9-.7zm0 1c.6 0 1 .2 1.1.4.3.2.4.6.4 1.1 0 .4-.2.8-.5 1-.4.3-1 .5-1.5.5h-1.4c.2-.4.4-.9.4-1.5 0-.4.1-.8.4-1 .2-.3.6-.5 1.1-.5zM29.3 5l-.4.1-.8.4-2.4 1.3a30.8 30.8 0 00-4.6 3.5 8 8 0 00-2 2.6c-.3.9-.1 1.8.5 2.5.7.6 1.6.8 2.5.4a8 8 0 002.6-1.9A31.2 31.2 0 0030 5.7c0-.1 0-.3-.2-.5s-.4-.2-.5-.2zm-.7 1.5a30.3 30.3 0 01-4.6 6.7 7 7 0 01-2.3 1.7c-.6.2-1 .2-1.3-.3-.5-.4-.5-.7-.3-1.3a7 7 0 011.7-2.3 31.3 31.3 0 016.8-4.5zM2.5 8h17a.5.5 0 110 1h-17a.5.5 0 110-1zM7 6.5a.5.5 0 11-1 0 .5.5 0 011 0zm-2 0a.5.5 0 11-1 0 .5.5 0 011 0zm-2 0a.5.5 0 11-1 0 .5.5 0 011 0zM1.5 4C.7 4 0 4.7 0 5.5v19c0 .8.7 1.5 1.5 1.5h25c.8 0 1.5-.7 1.5-1.5v-12c0-.7-1-.7-1 0v12c0 .3-.2.5-.5.5h-25a.5.5 0 01-.5-.5v-19c0-.3.2-.5.5-.5h25c.7 0 .7-1 0-1z"/></svg>