<svg viewBox="0 0 30 30" xmlns="http://www.w3.org/2000/svg"><path d="M28 6.4c-.6-.5-1.6-.5-2.1 0l-.5.5c-.5.5-.5 1.5 0 2l1.6 1.7c.6.5 1.5.5 2.1 0l.5-.5c.5-.5.5-1.5 0-2L28 6.3zm-.7.7l1.6 1.6c.2.2.2.5 0 .7l-.5.5c-.2.2-.5.2-.7 0l-1.6-1.6a.5.5 0 010-.7l.5-.5c.2-.2.5-.2.7 0zM23.9 9c-.3 0-.7 0-1 .3L12.6 19.6l-.5.7-.1 1.2V23c0 .5.4 1 1 1h1.5l1.2-.1.7-.5L26.6 13c.5-.5.5-1.2 0-1.7l-2-2a1 1 0 00-.7-.3zm0 1l2 2v.3L15.6 22.6l-.3.3-.8.1H13v-2.3l.4-.3L23.6 10h.3zM4.5 11h13a.5.5 0 110 1h-13a.5.5 0 110-1zm0-3h13a.5.5 0 110 1h-13a.5.5 0 110-1zm0-3h13a.5.5 0 110 1h-13a.5.5 0 110-1zm-3-5C.7 0 0 .7 0 1.5v27c0 .8.7 1.5 1.5 1.5h19c.8 0 1.5-.7 1.5-1.5v-8c0-.7-1-.6-1 0v8c0 .3-.2.5-.5.5h-19a.5.5 0 01-.5-.5v-27c0-.3.2-.5.5-.5h19c.3 0 .5.2.5.5v7c0 .7 1 .6 1 0v-7c0-.8-.7-1.5-1.5-1.5z"/></svg>