<svg width="221" height="54" viewBox="0 0 221 54" fill="none" xmlns="http://www.w3.org/2000/svg">
<path d="M26.9814 52.088C12.9667 52.088 1.60669 40.728 1.60669 26.7147C1.60669 12.7 12.9667 1.34 26.9814 1.34C40.9947 1.34 52.3547 12.7 52.3547 26.7147C52.3547 40.728 40.9947 52.088 26.9814 52.088Z" fill="white" stroke="#171717" stroke-width="2" stroke-miterlimit="10"/>
<path d="M23.1147 42.052H29.2906V26.584H33.6013L34.06 21.4054H29.2906C29.2906 21.4054 29.2906 19.472 29.2906 18.456C29.2906 17.2347 29.536 16.752 30.7173 16.752C31.6666 16.752 34.06 16.752 34.06 16.752V11.3774C34.06 11.3774 30.536 11.3774 29.7827 11.3774C25.1867 11.3774 23.1147 13.4014 23.1147 17.276C23.1147 20.6507 23.1147 21.4054 23.1147 21.4054H19.9013V26.6494H23.1147V42.052Z" fill="#171717"/>
<path d="M83.3734 52.748C69.36 52.748 58 41.388 58 27.3747C58 13.36 69.36 2 83.3734 2C97.3867 2 108.748 13.36 108.748 27.3747C108.748 41.388 97.3867 52.748 83.3734 52.748Z" fill="white" stroke="#171717" stroke-width="2" stroke-miterlimit="10"/>
<path d="M83.2933 12.8014C79.5147 12.8014 79.0413 12.8173 77.5573 12.8853C76.076 12.9533 75.0653 13.188 74.18 13.532C73.2653 13.888 72.4893 14.364 71.716 15.1374C70.9427 15.9107 70.4666 16.6867 70.112 17.6014C69.768 18.4867 69.532 19.4974 69.4653 20.9787C69.3973 22.4627 69.3813 22.936 69.3813 26.7147C69.3813 30.4934 69.3973 30.9667 69.4653 32.4507C69.532 33.932 69.768 34.9427 70.112 35.828C70.4666 36.7427 70.9427 37.5187 71.716 38.292C72.4893 39.0653 73.2653 39.5413 74.18 39.8973C75.0653 40.24 76.076 40.476 77.5573 40.544C79.0413 40.6107 79.5147 40.6267 83.2933 40.6267C87.072 40.6267 87.5453 40.6107 89.0293 40.544C90.5107 40.476 91.5213 40.24 92.4066 39.8973C93.3213 39.5413 94.0973 39.0653 94.8706 38.292C95.6439 37.5187 96.1199 36.7427 96.4759 35.828C96.8199 34.9427 97.0546 33.932 97.1226 32.4507C97.1906 30.9667 97.2066 30.4934 97.2066 26.7147C97.2066 22.936 97.1906 22.4627 97.1226 20.9787C97.0546 19.4974 96.8199 18.4867 96.4759 17.6014C96.1199 16.6867 95.6439 15.9107 94.8706 15.1374C94.0973 14.364 93.3213 13.888 92.4066 13.532C91.5213 13.188 90.5107 12.9533 89.0293 12.8853C87.5453 12.8173 87.072 12.8014 83.2933 12.8014ZM83.2933 15.308C87.0093 15.308 87.448 15.3227 88.916 15.3893C90.272 15.452 91.0093 15.6787 91.4987 15.8694C92.148 16.1214 92.612 16.4227 93.0987 16.9094C93.5853 17.396 93.8866 17.86 94.1386 18.5094C94.3293 19 94.556 19.736 94.6187 21.0933C94.6853 22.56 94.7 23 94.7 26.7147C94.7 30.4294 94.6853 30.8694 94.6187 32.336C94.556 33.6934 94.3293 34.4293 94.1386 34.92C93.8866 35.5693 93.5853 36.032 93.0987 36.52C92.612 37.0067 92.148 37.308 91.4987 37.56C91.0093 37.7507 90.272 37.9774 88.916 38.0387C87.448 38.1054 87.0093 38.12 83.2933 38.12C79.5787 38.12 79.1386 38.1054 77.672 38.0387C76.316 37.9774 75.5787 37.7507 75.088 37.56C74.4387 37.308 73.976 37.0067 73.4893 36.52C73.0013 36.032 72.7 35.5693 72.448 34.92C72.2573 34.4293 72.0306 33.6934 71.9693 32.336C71.9026 30.8694 71.888 30.4294 71.888 26.7147C71.888 23 71.9026 22.56 71.9693 21.0933C72.0306 19.736 72.2573 19 72.448 18.5094C72.7 17.86 73.0013 17.396 73.4893 16.9094C73.976 16.4227 74.4387 16.1214 75.088 15.8694C75.5787 15.6787 76.316 15.452 77.672 15.3893C79.1386 15.3227 79.5787 15.308 83.2933 15.308Z" fill="#171717"/>
<path d="M83.2933 31.352C80.732 31.352 78.6559 29.276 78.6559 26.7147C78.6559 24.1533 80.732 22.0773 83.2933 22.0773C85.8546 22.0773 87.9306 24.1533 87.9306 26.7147C87.9306 29.276 85.8546 31.352 83.2933 31.352ZM83.2933 19.5707C79.348 19.5707 76.1493 22.7693 76.1493 26.7147C76.1493 30.66 79.348 33.8586 83.2933 33.8586C87.24 33.8586 90.4372 30.66 90.4372 26.7147C90.4372 22.7693 87.24 19.5707 83.2933 19.5707Z" fill="#171717"/>
<path d="M92.3893 19.288C92.3893 20.2093 91.6427 20.9573 90.72 20.9573C89.7987 20.9573 89.0507 20.2093 89.0507 19.288C89.0507 18.3653 89.7987 17.6187 90.72 17.6187C91.6427 17.6187 92.3893 18.3653 92.3893 19.288Z" fill="#171717"/>
<path d="M138.375 52.748C124.361 52.748 113 41.388 113 27.3747C113 13.36 124.361 2 138.375 2C152.388 2 163.748 13.36 163.748 27.3747C163.748 41.388 152.388 52.748 138.375 52.748Z" fill="white" stroke="#171717" stroke-width="2" stroke-miterlimit="10"/>
<path d="M124.856 35.868C127.311 37.4427 130.227 38.3614 133.359 38.3614C143.657 38.3614 149.476 29.6627 149.127 21.86C150.209 21.0787 151.151 20.1014 151.893 18.988C150.899 19.4294 149.829 19.728 148.708 19.8614C149.853 19.176 150.732 18.0894 151.147 16.792C150.075 17.428 148.887 17.8907 147.625 18.1387C146.612 17.0614 145.171 16.388 143.575 16.388C139.995 16.388 137.363 19.728 138.172 23.1987C133.561 22.968 129.473 20.7587 126.739 17.4027C125.285 19.896 125.984 23.1587 128.455 24.8094C127.545 24.78 126.689 24.5293 125.941 24.1147C125.881 26.6853 127.723 29.088 130.391 29.624C129.609 29.8374 128.755 29.8853 127.887 29.7187C128.591 31.924 130.64 33.5267 133.068 33.572C130.736 35.4 127.799 36.216 124.856 35.868Z" fill="#171717"/>
<path d="M194.056 52.888C180.041 52.888 168.681 41.528 168.681 27.5147C168.681 13.5014 180.041 2.14002 194.056 2.14002C208.069 2.14002 219.429 13.5014 219.429 27.5147C219.429 41.528 208.069 52.888 194.056 52.888Z" fill="white" stroke="#171717" stroke-width="2" stroke-miterlimit="10"/>
<path fill-rule="evenodd" clip-rule="evenodd" d="M194.308 38.556C191.973 38.556 189.804 37.8654 187.988 36.6694L183.573 38.076L185.007 33.8414C183.631 31.96 182.819 29.6507 182.819 27.156C182.819 26.7853 182.837 26.4134 182.876 26.0494C183.439 20.2787 188.352 15.756 194.308 15.756C200.341 15.756 205.299 20.3934 205.759 26.2667C205.785 26.5614 205.797 26.8547 205.797 27.156C205.797 33.444 200.641 38.556 194.308 38.556ZM207.967 26.8107C207.781 19.4787 201.741 13.5934 194.308 13.5934C186.964 13.5934 180.976 19.3454 180.656 26.5614C180.649 26.76 180.644 26.9573 180.644 27.156C180.644 29.7213 181.36 32.1147 182.601 34.1614L180.137 41.4347L187.705 39.0294C189.664 40.104 191.915 40.7187 194.308 40.7187C201.857 40.7187 207.973 34.648 207.973 27.156C207.973 27.0413 207.973 26.9254 207.967 26.8107Z" fill="#171717"/>
<path fill-rule="evenodd" clip-rule="evenodd" d="M200.571 29.8947C200.232 29.728 198.588 28.9214 198.281 28.8134C197.973 28.6974 197.749 28.6467 197.527 28.9787C197.303 29.312 196.656 30.06 196.464 30.2774C196.265 30.5014 196.073 30.528 195.735 30.3613C195.403 30.1947 194.321 29.8494 193.041 28.7107C192.051 27.8347 191.372 26.7467 191.18 26.4134C190.988 26.0814 191.16 25.9013 191.327 25.736C191.48 25.5827 191.66 25.3453 191.832 25.1533C191.877 25.096 191.915 25.0453 191.953 24.9933C192.031 24.872 192.088 24.7573 192.165 24.5973C192.28 24.3733 192.223 24.1814 192.14 24.0147C192.056 23.848 191.384 22.2107 191.103 21.5454C190.828 20.88 190.547 20.9947 190.348 20.9947C190.156 20.9947 189.932 20.964 189.708 20.964C189.484 20.964 189.12 21.0467 188.813 21.3787C188.505 21.712 187.643 22.5173 187.643 24.156C187.643 24.5387 187.712 24.9227 187.815 25.288C188.153 26.4587 188.884 27.424 189.011 27.5907C189.177 27.8093 191.327 31.276 194.731 32.6134C198.14 33.9374 198.14 33.496 198.755 33.4387C199.368 33.3867 200.737 32.6387 201.012 31.8587C201.295 31.084 201.295 30.4187 201.211 30.2774C201.128 30.144 200.904 30.06 200.571 29.8947Z" fill="#171717"/>
</svg>
